# xmcd
#
# Track frame offsets: 
#        150
#        34113
#        53644
#        64570
#        87327
#        132969
#        158950
#        183362
#        205208
#        242638
#        276392
#        308539
#        337198
#
# Disc length: 4781 seconds
#
# Revision: 0
# Processed by: cddbd v1.5.2PL0 Copyright (c) Steve Scherf et al.
# Submitted via: ExactAudioCopy v0.99pb1
#
DISCID=b612ab0d
DTITLE=Chris Duarte Group - Tape Trips Volume 3 CD2
DYEAR=2007
DGENRE=Blues
TTITLE0=Sugar-Free Jazz
TTITLE1=Across The Borderline
TTITLE2=Shakespearean Interlude
TTITLE3=All Night
TTITLE4=Baby, Scratch My Back
TTITLE5=Do Right
TTITLE6=Crash
TTITLE7=Paper Dolls
TTITLE8=Like This, Like That
TTITLE9=Barely Get By
TTITLE10=Ziegler (Instrumental Jam)
TTITLE11=Don't You Want A Man Like Me?
TTITLE12=Let's Have A Party
EXTD=
EXTT0=
EXTT1=
EXTT2=
EXTT3=
EXTT4=
EXTT5=
EXTT6=
EXTT7=
EXTT8=
EXTT9=
EXTT10=
EXTT11=
EXTT12=
PLAYORDER=
